<?xml version="1.0" encoding="UTF-8"?>
<svg width="64px" height="64px" viewBox="0 0 64 64" version="1.1" xmlns="http://www.w3.org/2000/svg" xmlns:xlink="http://www.w3.org/1999/xlink">
    <!-- Generator: Sketch 52.6 (67491) - http://www.bohemiancoding.com/sketch -->
    <title>icon-customizations</title>
    <desc>Created with Sketch.</desc>
    <defs>
        <polygon id="path-1" points="0.870149612 0.375149612 45.4944848 0.375149612 45.4944848 45 0.870149612 45"></polygon>
    </defs>
    <g id="Page-1" stroke="none" stroke-width="1" fill="none" fill-rule="evenodd">
        <g id="eBallot_Homepage_md_2b" transform="translate(-813.000000, -1962.000000)">
            <g id="Experience" transform="translate(0.000000, 1214.000000)">
                <g id="icon-customizations" transform="translate(814.000000, 749.000000)">
                    <path d="M45.6265,36.6758 C46.1825,35.6078 46.6585,34.4908 47.0265,33.3238 L54.0005,30.9998 L54.0005,22.9998 L47.0265,20.6758 C46.6585,19.5088 46.1825,18.3928 45.6265,17.3238 L48.9205,10.7368 L43.2635,5.0798 L36.6755,8.3738 C35.6075,7.8178 34.4905,7.3418 33.3245,6.9728 L31.0005,-0.0002 L23.0005,-0.0002 L20.6755,6.9728 C19.5095,7.3418 18.3925,7.8178 17.3245,8.3738 L10.7365,5.0798 L5.0795,10.7368 L8.3735,17.3238 C7.8175,18.3928 7.3415,19.5088 6.9735,20.6758 L0.0005,22.9998 L0.0005,30.9998 L6.9735,33.3238 C7.3415,34.4908 7.8175,35.6078 8.3735,36.6758 L5.0795,43.2628 L10.7365,48.9208 L17.3245,45.6268 C18.3925,46.1828 19.5095,46.6588 20.6755,47.0268 L23.0005,53.9998 L31.0005,53.9998 L33.3245,47.0268 C34.4905,46.6588 35.6075,46.1828 36.6755,45.6268" id="Stroke-1" stroke="#183E76" stroke-width="2"></path>
                    <path d="M40,27 C40,34.18 34.18,40 27,40 C19.82,40 14,34.18 14,27 C14,19.82 19.82,14 27,14 C34.18,14 40,19.82 40,27 Z" id="Stroke-3" stroke="#183E76" stroke-width="2"></path>
                    <g id="Group-7" transform="translate(17.000000, 17.882800)">
                        <mask id="mask-2" fill="white">
                            <use xlink:href="#path-1"></use>
                        </mask>
                        <g id="Clip-6"></g>
                        <path d="M12.8267,17.2867 L28.5827,33.0437 C27.3527,36.1867 28.0027,39.8957 30.5417,42.4347 C33.3157,45.2087 37.4847,45.7327 40.7867,44.0087 L34.8777,38.0987 L38.5947,34.3827 L44.5037,40.2927 C46.2267,36.9907 45.7027,32.8207 42.9297,30.0467 C40.3907,27.5077 36.6807,26.8577 33.5387,28.0887 L17.7817,12.3317 C19.0127,9.1887 18.3627,5.4797 15.8227,2.9397 C13.0497,0.1667 8.8797,-0.3573 5.5777,1.3667 L11.4877,7.2757 L7.7707,10.9927 L1.8617,5.0827 C0.1377,8.3847 0.6617,12.5547 3.4347,15.3287 C5.9737,17.8677 9.6837,18.5177 12.8267,17.2867" id="Fill-5" fill="#A4D7F4" mask="url(#mask-2)"></path>
                    </g>
                </g>
            </g>
        </g>
    </g>
</svg>