<?xml version="1.0" encoding="UTF-8"?>
<svg width="58px" height="62px" viewBox="0 0 58 62" version="1.1" xmlns="http://www.w3.org/2000/svg" xmlns:xlink="http://www.w3.org/1999/xlink">
    <!-- Generator: Sketch 52.6 (67491) - http://www.bohemiancoding.com/sketch -->
    <title>icon-admin</title>
    <desc>Created with Sketch.</desc>
    <defs>
        <polygon id="path-1" points="0.862391304 0 24.775 0 24.775 15 0.862391304 15"></polygon>
    </defs>
    <g id="Page-1" stroke="none" stroke-width="1" fill="none" fill-rule="evenodd">
        <g id="eBallot_Homepage_md_2b" transform="translate(-819.000000, -1651.000000)">
            <g id="Experience" transform="translate(0.000000, 1214.000000)">
                <g id="icon-admin" transform="translate(820.000000, 438.000000)">
                    <path d="M37,45 L37,41.7 C37,37.4474 40.3578571,34 44.5,34 C48.6421429,34 52,37.4474 52,41.7 L52,45" id="Stroke-1" stroke="#183E76" stroke-width="2" stroke-linecap="round" stroke-linejoin="round"></path>
                    <path d="M29,59.9583729 C27.9187873,59.9850569 26.8095191,60 25.6743536,60 C14.7370558,60 6.5394777,58.7351755 1.95889076,57.7958966 C-0.0492299264,57.3828273 -0.692346491,54.863852 0.877678008,53.556333 C4.01880606,50.9391603 8.51738485,48.8215133 14.7672693,47.7637571 C15.8247429,47.5844402 17.3116802,44.9683349 16.4139067,42" id="Stroke-3" stroke="#183E76" stroke-width="2" stroke-linecap="round" stroke-linejoin="round"></path>
                    <path d="M38.8572352,32.2681071 C38.8701888,32.0012603 38.879904,31.6877696 38.8853013,31.5532615 C41.012929,30.3925866 41.4803378,26.6881897 41.4803378,24.8126693 C41.4803378,23.5804014 40.422461,22.772268 39.8935226,22.236405 C40.024138,21.5334916 40.7884,22.075863 40.7884,22.075863 C40.9093002,21.4022377 41.6433372,20.7654936 41.9132037,18.3692966 C42.6310487,11.997517 38.8108181,7.38193608 33.6153478,5.52811051 C31.5276604,4.78289216 22.8671039,3.27618431 19.6416592,0.134768954 C18.4736769,-1.00095683 19.2735613,5.4011956 18.2156845,5.87848246 C12.6834207,8.37881478 8.71962125,12.3131772 10.3830785,19.228413 C10.6011307,20.1341733 11.3276113,20.2231222 12.0799992,22.236405 C11.5510608,22.772268 10.4942635,23.5804014 10.4942635,24.8126693 C10.4942635,26.6881897 10.9681491,30.4826203 13.0871411,31.5532615 C13.279286,35.6752844 16.7271007,42.1099791 16.7271007,42.1099791 C20.4728481,45.5160718 23.1423678,47 24.5478326,47 C24.6093622,47 25.2181811,46.6420349 26.1637934,46.6420349 C27.1407102,46.6420349 27.8067408,47 27.8671909,47 C28.0269518,47 28.529983,46.805831 29.2294771,46.4522048" id="Stroke-5" stroke="#183E76" stroke-width="2" stroke-linecap="round" stroke-linejoin="round"></path>
                    <path d="M11.0009832,20.5867621 C10.9554693,18.6301431 12.493189,18.5477042 14.9856171,17.3476446 C17.423862,16.1736732 18.9041475,14.3433214 22.0077623,14 C19.5911907,15.8689624 19.8415172,18.956768 20.7886399,20.5220632 C27.6493191,15.5245975 32.2299684,20.5199761 37.6970552,18.6520572 C39.0971496,18.1730769 41.1290203,18.9129398 40.9935623,21" id="Stroke-7" stroke="#183E76" stroke-width="2" stroke-linecap="round" stroke-linejoin="round"></path>
                    <path d="M29,52.6570029 C27.9989718,52.8734177 26.9148936,53 25.7577316,53 C19.8168947,53 15.4717235,49.5567579 15,48" id="Stroke-9" stroke="#183E76" stroke-width="2" stroke-linecap="round" stroke-linejoin="round"></path>
                    <g id="Group-13" transform="translate(32.000000, 46.000000)">
                        <mask id="mask-2" fill="white">
                            <use xlink:href="#path-1"></use>
                        </mask>
                        <g id="Clip-12"></g>
                        <path d="M24.9130435,2.14285714 L24.9130435,12.8571429 C24.9130435,14.04 23.9391304,15 22.7391304,15 L3.17391304,15 C1.97391304,15 1,14.04 1,12.8571429 L1,2.14285714 C1,0.96 1.97391304,0 3.17391304,0 L22.7391304,0 C23.9391304,0 24.9130435,0.96 24.9130435,2.14285714" id="Fill-11" fill="#A4D7F4" mask="url(#mask-2)"></path>
                    </g>
                    <g id="Group-2" transform="translate(43.000000, 51.000000)" stroke="#183E76" stroke-linecap="round" stroke-linejoin="round" stroke-width="2">
                        <path d="M3,1.5 C3,2.3295 2.328,3 1.5,3 C0.672,3 0,2.3295 0,1.5 C0,0.6705 0.672,0 1.5,0 C2.328,0 3,0.6705 3,1.5 Z" id="Stroke-14"></path>
                        <path d="M1.5,4 L1.5,6" id="Stroke-16"></path>
                    </g>
                </g>
            </g>
        </g>
    </g>
</svg>